<svg width="49" height="29" viewBox="0 0 49 29" fill="none" xmlns="http://www.w3.org/2000/svg">
<path d="M46.4194 22.0017C45.3627 20.7357 44.162 19.6011 43.0008 18.5037C42.5879 18.1135 42.161 17.71 41.7494 17.3088C40.5679 16.1558 40.5249 15.7226 41.4604 14.4128C42.1076 13.51 42.7938 12.6061 43.4574 11.7318C44.0593 10.9386 44.6818 10.1183 45.2783 9.29542L45.4008 9.12622C46.541 7.55144 47.7203 5.92305 48.3478 3.95867C48.5108 3.44041 48.6819 2.67775 48.2907 2.04002C47.8997 1.40283 47.1412 1.20843 46.6046 1.11763C46.3392 1.0727 46.0757 1.06657 45.8311 1.06657L38.3639 1.06123L38.3022 1.0607C37.1732 1.0607 36.4123 1.59176 35.9763 2.68442C35.5601 3.72841 35.1028 4.84013 34.5811 5.89719C33.5428 8.0021 32.2241 10.4265 30.3159 12.4485L30.2352 12.5345C30.0099 12.7762 29.7546 13.0499 29.568 13.0499C29.5394 13.0499 29.5083 13.0445 29.473 13.0334C29.0778 12.8797 28.8125 11.9246 28.8245 11.4803C28.8247 11.4742 28.8248 11.4681 28.8248 11.4619L28.8196 2.84735C28.8196 2.81748 28.8174 2.78788 28.8136 2.75828C28.6236 1.3579 28.2028 0.486171 26.613 0.175374C26.5708 0.166974 26.5276 0.162842 26.4846 0.162842H18.7202C17.4552 0.162842 16.7582 0.676037 16.103 1.44416C15.9262 1.64949 15.558 2.07696 15.7405 2.59548C15.9256 3.12175 16.5266 3.23428 16.7223 3.27081C17.6937 3.45534 18.2412 4.04841 18.3963 5.08466C18.6671 6.88411 18.7003 8.80476 18.501 11.1291C18.4455 11.7751 18.3355 12.2741 18.1544 12.7003C18.1123 12.7998 17.9631 13.1245 17.811 13.1246C17.7626 13.1246 17.6228 13.1057 17.368 12.9305C16.7657 12.5186 16.325 11.9309 15.8113 11.2049C14.0636 8.73943 12.5967 6.02345 11.3264 2.89988C10.8553 1.75003 9.97538 1.1063 8.84771 1.08737C7.60864 1.06857 6.48524 1.0595 5.41381 1.0595C4.24313 1.0595 3.1578 1.0703 2.09799 1.0923C1.19072 1.1083 0.563172 1.37976 0.232966 1.89976C-0.0977747 2.42015 -0.0762684 3.10375 0.29695 3.93121C3.28457 10.5609 5.99341 15.3812 9.08041 19.5615C11.2434 22.4865 13.413 24.5111 15.9075 25.9326C18.5355 27.4333 21.4806 28.1628 24.9109 28.1628C25.2998 28.1628 25.7019 28.1534 26.1073 28.1344C28.1005 28.0375 28.84 27.3174 28.9335 25.3802C28.978 24.3902 29.0865 23.352 29.574 22.4665C29.8818 21.9086 30.1687 21.9086 30.263 21.9086C30.4447 21.9086 30.6699 21.9921 30.9118 22.1485C31.3457 22.4312 31.7177 22.8098 32.0227 23.1406C32.3097 23.4549 32.5936 23.7724 32.8777 24.0899C33.4908 24.7754 34.1248 25.4841 34.7871 26.1562C36.2367 27.6283 37.8336 28.2758 39.6678 28.1352H46.5139C46.5285 28.1352 46.5432 28.1347 46.5577 28.1338C47.2399 28.0888 47.8307 27.7111 48.1787 27.0975C48.6098 26.3374 48.6011 25.3677 48.1555 24.5029C47.6499 23.525 46.994 22.6896 46.4194 22.0017Z" fill="#2E2E2E"/>
</svg>
